#!OML:ASF E:\acrobat2\Project_11_07_03\Capture day 1\Session 1\Acrobat.ASF
:FULLY-SPECIFIED
:DEGREES
1034
root 5.41796 27.7796 -23.9861 3.35017 5.89789 -4.17863
lowerback 4.17705 0.962943 -2.97996
upperback 2.89455 1.19259 -1.98929
thorax 0.614663 0.573548 -0.413739
lowerneck -3.17332 0.0872163 -1.78915
upperneck -1.88127 0.221744 6.51453
head -0.0547616 0.136771 2.35555
rclavicle 7.95139e-015 -9.54166e-015
rhumerus -48.1109 -12.766 -73.1131
rradius 75.5707
rwrist -41.3647
rhand 6.24474 -16.4299
rfingers 7.12502
rthumb 31.5565 -43.7238
lclavicle 7.95139e-015 -9.54166e-015
lhumerus -31.5641 29.0007 54.4971
lradius 68.0036
lwrist 63.3958
lhand -34.3169 -5.28799
lfingers 7.12502
lthumb -7.48541 24.5596
rfemur -17.9488 -4.88677 19.6126
rtibia 31.6764
rfoot -15.7695 -2.2495
rtoes -22.0165
lfemur -15.5956 -2.1906 -14.2606
ltibia 28.9558
lfoot -13.8822 -17.4383
ltoes 27.8691
1035
root 5.43195 27.7654 -24.0125 3.38605 5.8314 -4.06723
lowerback 4.06013 1.0034 -3.15094
upperback 2.87357 1.24595 -2.05743
thorax 0.655893 0.598096 -0.388186
lowerneck -3.05169 0.114183 -1.92182
upperneck -2.13883 0.275794 6.58578
head -0.158653 0.158639 2.40347
rclavicle -7.95139e-016 7.95139e-015
rhumerus -48.4121 -12.8352 -73.0516
rradius 75.2107
rwrist -41.3823
rhand 6.38892 -16.5297
rfingers 7.12502
rthumb 31.6938 -43.7966
lclavicle -7.95139e-016 7.95139e-015
lhumerus -31.3283 28.9616 54.8772
lradius 67.9077
lwrist 63.3627
lhand -34.0812 -5.20762
lfingers 7.12502
lthumb -7.25797 24.6479
rfemur -17.845 -4.68014 19.3391
rtibia 31.227
rfoot -16.4668 -3.44112
rtoes -21.6892
lfemur -15.3671 -2.62146 -14.3313
ltibia 28.8698
lfoot -14.4879 -17.4898
ltoes 27.8409
1036
root 5.44564 27.7526 -24.0367 3.42858 5.72372 -3.94977
lowerback 3.91123 1.05939 -3.32338
upperback 2.86335 1.32248 -2.13643
thorax 0.725751 0.633856 -0.372926
lowerneck -2.96626 0.134022 -2.00857
upperneck -2.39498 0.318947 6.65528
head -0.255663 0.175463 2.44268
rclavicle 4.37326e-015 3.18055e-015
rhumerus -48.6885 -12.9425 -72.9623
rradius 74.8017
rwrist -41.3533
rhand 6.58527 -16.6328
rfingers 7.12502
rthumb 31.8808 -43.8626
lclavicle 4.37326e-015 3.18055e-015
lhumerus -31.1171 28.9009 55.2613
lradius 67.8607
lwrist 63.3109
lhand -33.8511 -5.14145
lfingers 7.12502
lthumb -7.03584 24.7216
rfemur -17.7285 -4.52503 19.1219
rtibia 30.7203
rfoot -17.1186 -4.44946
rtoes -21.3795
lfemur -15.0727 -3.05104 -14.3952
ltibia 28.7148
lfoot -15.1439 -17.5195
ltoes 27.7928
1037
root 5.45978 27.741 -24.059 3.47683 5.56176 -3.82759
lowerback 3.73313 1.13071 -3.49355
upperback 2.86146 1.42206 -2.22191
thorax 0.820094 0.68076 -0.36537
lowerneck -2.92159 0.140193 -2.03858
upperneck -2.59496 0.339309 6.70802
head -0.327097 0.182024 2.46598
rclavicle -1.70955e-014 2.06736e-014
rhumerus -48.9445 -13.0835 -72.8429
rradius 74.3608
rwrist -41.2968
rhand 6.776 -16.7945
rfingers 7.12502
rthumb 32.0625 -43.9879
lclavicle -1.70955e-014 2.06736e-014
lhumerus -30.9425 28.8416 55.64
lradius 67.8571
lwrist 63.2331
lhand -33.6315 -5.07348
lfingers 7.12502
lthumb -6.82387 24.7966
rfemur -17.6214 -4.44918 18.9613
rtibia 30.1974
rfoot -17.6661 -5.19622
rtoes -21.1555
lfemur -14.7004 -3.47071 -14.4531
ltibia 28.4729
lfoot -15.8265 -17.5453
ltoes 27.8263
1038
root 5.47467 27.73 -24.08 3.5423 5.34782 -3.70727
lowerback 3.53339 1.21016 -3.64917
upperback 2.84999 1.53448 -2.30967
thorax 0.916623 0.73421 -0.367859
lowerneck -2.88718 0.136609 -2.02374
upperneck -2.7337 0.342106 6.74591
head -0.376691 0.180501 2.47605
rclavicle -2.18663e-014 -2.22639e-014
rhumerus -49.1983 -13.2414 -72.6949
rradius 73.9035
rwrist -41.2288
rhand 6.91447 -17.0489
rfingers 7.12502
rthumb 32.1943 -44.2157
lclavicle -2.18663e-014 -2.22639e-014
lhumerus -30.8421 28.7871 55.9886
lradius 67.896
lwrist 63.1362
lhand -33.432 -5.01398
lfingers 7.12502
lthumb -6.63128 24.8622
rfemur -17.5604 -4.47732 18.8657
rtibia 29.7039
rfoot -18.0638 -5.64941
rtoes -21.0701
lfemur -14.2706 -3.86971 -14.4953
ltibia 28.1471
lfoot -16.5519 -17.5495
ltoes 27.7376
1039
root 5.48998 27.7189 -24.1007 3.63619 5.10662 -3.59041
lowerback 3.32252 1.28293 -3.78541
upperback 2.81733 1.63904 -2.39762
thorax 0.998019 0.784272 -0.380598
lowerneck -2.85236 0.134611 -1.98326
upperneck -2.83147 0.344112 6.77344
head -0.413409 0.178931 2.47795
rclavicle 8.74653e-015 4.77083e-015
rhumerus -49.442 -13.3952 -72.5298
rradius 73.4282
rwrist -41.1696
rhand 6.9877 -17.3414
rfingers 7.12502
rthumb 32.264 -44.4941
lclavicle 8.74653e-015 4.77083e-015
lhumerus -30.8362 28.753 56.2865
lradius 67.9672
lwrist 63.0111
lhand -33.2502 -4.96694
lfingers 7.12502
lthumb -6.45576 24.9147
rfemur -17.5684 -4.63749 18.8361
rtibia 29.2645
rfoot -18.2787 -5.80335
rtoes -21.065
lfemur -13.8197 -4.24928 -14.5166
ltibia 27.7632
lfoot -17.3667 -17.4905
ltoes 27.1221
1040
root 5.50552 27.7073 -24.1217 3.7593 4.85942 -3.47166
lowerback 3.12 1.34135 -3.9075
upperback 2.75712 1.72381 -2.4846
thorax 1.04704 0.825243 -0.39981
lowerneck -2.80682 0.142875 -1.94405
upperneck -2.91263 0.359086 6.80205
head -0.447389 0.183871 2.4805
rclavicle -2.5842e-014 0
rhumerus -49.6682 -13.5406 -72.353
rradius 72.9341
rwrist -41.1393
rhand 7.01082 -17.5978
rfingers 7.12502
rthumb 32.286 -44.746
lclavicle -2.5842e-014 0
lhumerus -30.9278 28.749 56.5261
lradius 68.0589
lwrist 62.8547
lhand -33.0705 -4.9215
lfingers 7.12502
lthumb -6.28225 24.9653
rfemur -17.6471 -4.93983 18.8637
rtibia 28.8938
rfoot -18.2864 -5.68231
rtoes -21.1041
lfemur -13.367 -4.61871 -14.52
ltibia 27.3412
lfoot -18.2586 -17.3716
ltoes 25.9372
1041
root 5.5214 27.6948 -24.1434 3.9048 4.61697 -3.34642
lowerback 2.92688 1.38649 -4.01622
upperback 2.68031 1.79042 -2.57175
thorax 1.07441 0.857775 -0.426358
lowerneck -2.7436 0.165112 -1.92549
upperneck -3.01785 0.394819 6.83932
head -0.493044 0.198617 2.48989
rclavicle 8.74653e-015 -2.70347e-014
rhumerus -49.868 -13.6928 -72.1673
rradius 72.4392
rwrist -41.1591
rhand 6.99304 -17.8171
rfingers 7.12502
rthumb 32.2691 -44.9687
lclavicle 8.74653e-015 -2.70347e-014
lhumerus -31.0858 28.7745 56.7203
lradius 68.1645
lwrist 62.6951
lhand -32.8883 -4.87125
lfingers 7.12502
lthumb -6.10639 25.0207
rfemur -17.7791 -5.36444 18.9375
rtibia 28.5972
rfoot -18.0658 -5.32223
rtoes -21.1975
lfemur -12.9128 -4.98997 -14.5115
ltibia 26.8789
lfoot -19.1303 -17.2614
ltoes 24.6776
1042
root 5.53743 27.6815 -24.1656 4.05693 4.38338 -3.20876
lowerback 2.75185 1.42289 -4.1203
upperback 2.59578 1.84445 -2.65852
thorax 1.08411 0.884421 -0.455198
lowerneck -2.66743 0.200222 -1.93315
upperneck -3.14997 0.450031 6.87985
head -0.550453 0.222642 2.50535
rclavicle 1.86858e-014 7.95139e-015
rhumerus -50.0405 -13.855 -71.9721
rradius 71.9614
rwrist -41.2521
rhand 6.90896 -18.0171
rfingers 7.12502
rthumb 32.189 -45.185
lclavicle 1.86858e-014 7.95139e-015
lhumerus -31.293 28.814 56.8814
lradius 68.2829
lwrist 62.5598
lhand -32.6845 -4.80083
lfingers 7.12502
lthumb -5.90963 25.0968
rfemur -17.9294 -5.84696 19.0393
rtibia 28.3679
rfoot -17.6006 -4.76534
rtoes -21.3322
lfemur -12.4394 -5.36851 -14.4995
ltibia 26.3634
lfoot -19.9112 -17.2057
ltoes 23.6947
1043
root 5.55316 27.6672 -24.1886 4.20996 4.17511 -3.05057
lowerback 2.59673 1.44804 -4.23213
upperback 2.50856 1.88231 -2.74292
thorax 1.07995 0.903118 -0.477417
lowerneck -2.5946 0.241995 -1.96902
upperneck -3.27004 0.514183 6.92102
head -0.604143 0.251666 2.52623
rclavicle -4.77083e-015 -4.77083e-015
rhumerus -50.1885 -14.0233 -71.7666
rradius 71.5181
rwrist -41.4318
rhand 6.72703 -18.2053
rfingers 7.12502
rthumb 32.0158 -45.408
lclavicle -4.77083e-015 -4.77083e-015
lhumerus -31.5398 28.8605 57.0188
lradius 68.4105
lwrist 62.4476
lhand -32.4427 -4.6924
lfingers 7.12502
lthumb -5.67618 25.2116
rfemur -18.0842 -6.31377 19.1458
rtibia 28.2266
rfoot -16.899 -4.08472
rtoes -21.4834
lfemur -11.95 -5.75743 -14.4924
ltibia 25.8036
lfoot -20.5931 -17.1981
ltoes 22.9815
1044
root 5.56822 27.6518 -24.2135 4.36484 4.02035 -2.8702
lowerback 2.46055 1.45534 -4.35081
upperback 2.4258 1.89562 -2.82368
thorax 1.07001 0.909536 -0.49204
lowerneck -2.5411 0.283006 -2.01686
upperneck -3.36399 0.575725 6.94422
head -0.646246 0.280365 2.54323
rclavicle -1.15295e-014 -2.70347e-014
rhumerus -50.3137 -14.2012 -71.548
rradius 71.1291
rwrist -41.6961
rhand 6.41356 -18.4276
rfingers 7.12502
rthumb 31.7173 -45.6898
lclavicle -1.15295e-014 -2.70347e-014
lhumerus -31.7916 28.9238 57.1486
lradius 68.5277
lwrist 62.3481
lhand -32.1916 -4.57081
lfingers 7.12502
lthumb -5.43371 25.3395
rfemur -18.2436 -6.71594 19.2424
rtibia 28.2107
rfoot -16.0035 -3.41434
rtoes -21.5577
lfemur -11.467 -6.16809 -14.4925
ltibia 25.2229
lfoot -21.1747 -17.2438
ltoes 22.5756
1045
root 5.58227 27.6354 -24.241 4.51724 3.92624 -2.6722
lowerback 2.35248 1.44293 -4.47044
upperback 2.35011 1.88141 -2.90016
thorax 1.05207 0.902307 -0.501949
lowerneck -2.49957 0.320842 -2.05439
upperneck -3.45032 0.631389 6.92588
head -0.683398 0.306549 2.5444
rclavicle -2.78299e-015 -1.59028e-015
rhumerus -50.4147 -14.3909 -71.3157
rradius 70.7975
rwrist -42.01
rhand 5.94864 -18.7092
rfingers 7.12502
rthumb 31.2744 -46.0581
lclavicle -2.78299e-015 -1.59028e-015
lhumerus -32.0274 29.0082 57.2756
lradius 68.6202
lwrist 62.2653
lhand -31.9518 -4.44941
lfingers 7.12502
lthumb -5.20217 25.4667
rfemur -18.4084 -7.00844 19.3269
rtibia 28.3523
rfoot -15.0449 -2.9302
rtoes -21.6049
lfemur -10.9992 -6.59583 -14.4922
ltibia 24.6393
lfoot -21.6897 -17.3081
ltoes 22.2254
1046
root 5.59517 27.6176 -24.2711 4.67798 3.88853 -2.46236
lowerback 2.26786 1.40912 -4.57964
upperback 2.27368 1.83737 -2.97352
thorax 1.02117 0.8806 -0.514659
lowerneck -2.45078 0.360171 -2.091
upperneck -3.54762 0.688781 6.87798
head -0.725187 0.333463 2.53554
rclavicle -2.06736e-014 3.33958e-014
rhumerus -50.501 -14.5862 -71.0719
rradius 70.5201
rwrist -42.3203
rhand 5.36907 -19.0051
rfingers 7.12502
rthumb 30.7219 -46.4592
lclavicle -2.06736e-014 3.33958e-014
lhumerus -32.2616 29.1021 57.3877
lradius 68.6932
lwrist 62.2132
lhand -31.7519 -4.33796
lfingers 7.12502
lthumb -5.00913 25.5828
rfemur -18.6058 -7.17535 19.4079
rtibia 28.6869
rfoot -14.2409 -2.75633
rtoes -21.8431
lfemur -10.5729 -7.01408 -14.4792
ltibia 24.0817
lfoot -22.1904 -17.3169
ltoes 21.4551
1047
root 5.60665 27.5982 -24.3033 4.85509 3.90167 -2.25285
lowerback 2.19175 1.3545 -4.66388
upperback 2.19991 1.76564 -3.04273
thorax 0.989511 0.845442 -0.536787
lowerneck -2.39879 0.408217 -2.1476
upperneck -3.68331 0.759917 6.82252
head -0.780396 0.366969 2.52797
rclavicle -1.23246e-014 6.52014e-014
rhumerus -50.562 -14.783 -70.8221
rradius 70.2834
rwrist -42.5946
rhand 4.38945 -19.479
rfingers 7.12502
rthumb 29.7874 -47.1046
lclavicle -1.23246e-014 6.52014e-014
lhumerus -32.4958 29.1941 57.4821
lradius 68.7531
lwrist 62.1924
lhand -31.681 -4.31272
lfingers 7.12502
lthumb -4.94073 25.6097
rfemur -18.8502 -7.23286 19.5053
rtibia 29.2096
rfoot -13.7723 -2.94491
rtoes -22.3615
lfemur -10.2109 -7.39511 -14.4335
ltibia 23.5764
lfoot -22.6556 -17.2851
ltoes 20.3137
1048
root 5.61655 27.5775 -24.3373 5.03883 3.94957 -2.05977
lowerback 2.12828 1.28611 -4.71356
upperback 2.13542 1.67563 -3.10311
thorax 0.961434 0.801452 -0.569053
lowerneck -2.34925 0.461966 -2.22129
upperneck -3.86086 0.840917 6.7649
head -0.849041 0.405196 2.52299
rclavicle -5.56597e-015 2.38542e-014
rhumerus -50.5828 -14.9797 -70.5743
rradius 70.0731
rwrist -42.8125
rhand 3.33355 -19.9143
rfingers 7.12502
rthumb 28.7792 -47.7158
lclavicle -5.56597e-015 2.38542e-014
lhumerus -32.7142 29.2817 57.5665
lradius 68.7916
lwrist 62.1843
lhand -31.6544 -4.26556
lfingers 7.12502
lthumb -4.91508 25.6574
rfemur -19.125 -7.2064 19.6413
rtibia 29.8656
rfoot -13.721 -3.46185
rtoes -23.1652
lfemur -9.91025 -7.71228 -14.3304
ltibia 23.1393
lfoot -22.9992 -17.3034
ltoes 19.2806
